<svg xmlns="http://www.w3.org/2000/svg" width="48" height="48"><g fill="#fff" transform="translate(7.995 -1011.561)"><circle cx="16.005" cy="1035.561" r="24" fill="#239fdb" fill-rule="evenodd"/><path fill="#0b5ecd" style="line-height:normal;text-indent:0;text-align:start;text-decoration-line:none;text-transform:none;block-progression:tb" d="M30.205 47.174a24 24 0 0 0 .215-.049 24 24 0 0 0 2.277-.756 24 24 0 0 0 2.19-.98 24 24 0 0 0 2.08-1.194 24 24 0 0 0 1.951-1.394 24 24 0 0 0 1.803-1.584 24 24 0 0 0 1.634-1.756 24 24 0 0 0 1.454-1.91 24 24 0 0 0 1.254-2.045 24 24 0 0 0 1.042-2.16 24 24 0 0 0 .823-2.254 24 24 0 0 0 .228-.895l-15.68-15.68-.025-.025c-.033-.033-.07-.061-.103-.094a12.04 12.04 0 0 0-.56-.515c-.08-.067-.161-.129-.241-.194a11.994 11.994 0 0 0-.445-.347 10.02 10.02 0 0 0-.317-.223 11.998 11.998 0 0 0-1.574-.916 11.98 11.98 0 0 0-.482-.219c-.116-.05-.231-.1-.348-.146a11.95 11.95 0 0 0-.598-.215c-.08-.027-.159-.057-.24-.082-.293-.09-.59-.172-.89-.24.117.122.234.248.345.385.46.565.876 1.26 1.242 2.066.127.28.239.59.354.896l-2.76-2.761c-.022-.022-.044-.038-.066-.059-.05-.048-.1-.09-.149-.133a3.625 3.625 0 0 0-.492-.363 2.518 2.518 0 0 0-.293-.146c-.057-.025-.114-.053-.172-.073a2.036 2.036 0 0 0-.385-.088c-.025-.003-.049-.015-.074-.017-.08 0-.16-.01-.242-.01V11c-.213.01-.426.042-.643.12-.376.132-.756.385-1.127.745-.05.05-.1.11-.15.162l-.717-.716a11.986 11.986 0 0 0-6.435 3.886l1.761 1.762c-.131-.041-.27-.078-.398-.121a14.492 14.492 0 0 1-1.996-.84 11.97 11.97 0 0 0-2.069 4.867A12.012 12.012 0 0 0 11 22.996l1 1h-.957c.104 1.245.4 2.455.871 3.59v.002c.353.85.803 1.659 1.342 2.408v.002c.18.25.37.493.568.729l.76.76c-.015.006-.034.01-.049.017l15.67 15.67z" color="#000" font-family="sans-serif" font-weight="400" transform="translate(-7.995 1011.561)"/><path style="line-height:normal;text-indent:0;text-align:start;text-decoration-line:none;text-transform:none;block-progression:tb" d="M13.967 1023.365c.081 0 .161.01.242.01.685.064 1.352.49 2.02 1.31.781.96 1.476 2.465 1.98 4.348a26.556 26.556 0 0 1-8.412-.004c.206-.772.436-1.505.707-2.145.783-1.846 1.817-3.044 2.82-3.398.217-.077.43-.112.643-.12zm2.691.3a12 12 0 0 1 6.453 3.897c-1.09.538-2.424.975-3.918 1.283-.527-2.015-1.268-3.663-2.19-4.795a6.024 6.024 0 0 0-.345-.385zm-5.328.01c-.679.713-1.263 1.673-1.748 2.817-.302.71-.552 1.515-.773 2.359-1.493-.307-2.822-.75-3.914-1.29a11.974 11.974 0 0 1 6.435-3.886zm12.412 4.688c.347.482.656.997.932 1.535a7.51 7.51 0 0 0-3.104-.596c-.06 0-.122.013-.183.016.86-.27 1.649-.588 2.355-.955zm-19.48 0c1.215.629 2.675 1.124 4.297 1.46a26.085 26.085 0 0 0-.518 4.042c-.026.503-.024.999-.025 1.496h-6.01c0-.706.059-1.418.187-2.131a11.97 11.97 0 0 1 2.069-4.867zm5.285 1.636c1.47.242 3.035.37 4.639.36a27.777 27.777 0 0 0 4.263-.35c.005.024.013.046.018.07-.15.073-.301.139-.447.223a7.478 7.478 0 0 0-3.602 5.059H9.02c-.002-.48-.006-.959.02-1.444.072-1.394.249-2.713.507-3.918zm12.049.3a6.495 6.495 0 0 1 5.802 3.25 6.493 6.493 0 0 1-2.378 8.878 6.493 6.493 0 0 1-8.88-2.379 6.495 6.495 0 0 1 2.38-8.88 6.467 6.467 0 0 1 3.076-.87zm.277 1.497c-.242-.01-.485.01-.727.037a5.007 5.007 0 0 0-1.876.657c-2.384 1.376-3.218 4.423-1.84 6.808 1.378 2.387 4.452 3.217 6.84 1.838 2.386-1.378 3.218-4.45 1.84-6.838a5.02 5.02 0 0 0-4.237-2.502zm-.023 1a4.02 4.02 0 0 1 3.392 2.002c.106.183.18.372.254.563h-7.441a3.978 3.978 0 0 1 1.715-2.006c.49-.283.999-.467 1.5-.53.193-.023.386-.033.58-.028zm-19.801 3.565h5.976c.062 1.957.308 3.833.739 5.496-1.45.288-2.777.707-3.934 1.234a12.002 12.002 0 0 1-2.781-6.73zm6.988 0h5.25a7.454 7.454 0 0 0 .986 4.187c.183.316.39.606.61.885a28.089 28.089 0 0 0-6.08.244c-.424-1.589-.69-3.408-.766-5.316zm8.76 0h7.953a4.01 4.01 0 0 1-1.98 3.91 4.007 4.007 0 0 1-5.473-1.473 3.945 3.945 0 0 1-.5-2.437zm-4.17 6.004a27.31 27.31 0 0 1 3.307.156c.264.223.542.429.832.611-.726 1.993-1.682 3.32-2.61 3.881a2.459 2.459 0 0 1-.89.338c-.197 0-.393.01-.59 0-.46-.078-.927-.333-1.422-.795-.852-.795-1.588-2.187-2.15-3.908a26.888 26.888 0 0 1 3.523-.285zm-4.565.465c.56 1.752 1.322 3.226 2.284 4.224a11.994 11.994 0 0 1-2.533-.873 11.981 11.981 0 0 1-3.272-2.312c1.032-.436 2.221-.788 3.521-1.04zm17.016.1 3.856 6.68a.489.489 0 0 1-.182.683.489.489 0 0 1-.684-.184l-3.847-6.664c.1-.052.2-.096.299-.152a7.63 7.63 0 0 0 .558-.363zm-7.428.68a7.55 7.55 0 0 0 3.354.68 11.97 11.97 0 0 1-5.334 2.763c.776-.81 1.436-1.985 1.98-3.444z" color="#000" font-family="sans-serif" font-weight="400" overflow="visible" transform="translate(.999 -.803)"/></g></svg>