<svg xmlns="http://www.w3.org/2000/svg" data-name="Layer 1" viewBox="0 0 512 512"><path fill="#00efd1" d="M18.29 386.67h475.42v99.19H18.29z"/><path fill="#00acea" d="M185.99 344.43h307.72v42.24H18.29v-42.24h167.7z"/><path fill="#fedb41" d="M435.44 40.05h50.44V90.5h-50.44z"/><path fill="#00acea" d="M415.99 194.71h34.75v63.39h-63.38v-63.39h28.63z"/><path fill="#00efd1" d="M256 214.45a19.34 19.34 0 1 0 19.34 19.34A19.342 19.342 0 0 0 256 214.45zm0-95.47 81.49 153.96-10.83 71.49H185.99l-11.48-71.49zm-.69-92.84a35.457 35.457 0 1 1-25.08 10.39 35.467 35.467 0 0 1 25.08-10.39z"/><circle cx="256" cy="233.79" r="19.34" fill="#fedb41"/><path fill="#00acea" d="M59.88 194.71h63.38v63.39H59.88z"/><path fill="#fedb41" d="M76.56 67v23.5H26.12V40.05h50.44V67z"/><path fill="#083863" d="M26.12 99h50.44A8.826 8.826 0 0 0 85 90.5V75h87.686a172.524 172.524 0 0 0-84.552 112H59.88a7.655 7.655 0 0 0-7.88 7.71v63.39a7.813 7.813 0 0 0 7.88 7.9h63.38a7.7 7.7 0 0 0 7.74-7.9v-63.39a7.539 7.539 0 0 0-7.74-7.71h-18.643A155.72 155.72 0 0 1 214.071 75.5a43.555 43.555 0 0 0 82.477.01A155.638 155.638 0 0 1 406 187h-18.64c-4.419 0-8.36 3.292-8.36 7.71v63.39c0 4.419 3.941 7.9 8.36 7.9h63.38a8.141 8.141 0 0 0 8.26-7.9v-63.39c0-4.418-3.841-7.71-8.26-7.71h-28.261a172.452 172.452 0 0 0-84.52-112H427v15.5a8.826 8.826 0 0 0 8.44 8.5h50.44c4.418 0 8.12-4.082 8.12-8.5V40.05a8.146 8.146 0 0 0-8.12-8.05h-50.44c-4.419 0-8.44 3.631-8.44 8.05V59H298.685a43.452 43.452 0 0 0-86.75 0H85V40.05c0-4.419-4.021-8.05-8.44-8.05H26.12A8.146 8.146 0 0 0 18 40.05V90.5c0 4.418 3.7 8.5 8.12 8.5zM115 203v47H68v-47zm328 0v47h-48v-47zm0-155h35v35h-35zm-207.113-5.813a27.476 27.476 0 1 1-8.037 19.423 27.29 27.29 0 0 1 8.037-19.423zM34 48h35v35H34z"/><path fill="#083863" d="M493.71 336H335.963l9.437-62.077a7.675 7.675 0 0 0-.839-4.833l-81.49-153.906a8.006 8.006 0 0 0-14.142.04l-81.49 153.967a7.369 7.369 0 0 0-.828 4.8L176.6 336H18.29a8.629 8.629 0 0 0-8.29 8.43v141.43a8.373 8.373 0 0 0 8.29 8.14h475.42a8.373 8.373 0 0 0 8.29-8.14V344.43a8.629 8.629 0 0 0-8.29-8.43zM256 222.45a11.34 11.34 0 1 1-11.34 11.34A11.353 11.353 0 0 1 256 222.45zm-8-71.25v56.452a27.34 27.34 0 1 0 16 0V151.2l65.185 122.939L319.781 336H192.808l-9.975-61.9zM486 478h-34v-22.7a8 8 0 1 0-16 0V478h-26v-39.42a8 8 0 1 0-16 0V478h-26v-22.7a8 8 0 1 0-16 0V478h-25v-39.42a8 8 0 1 0-16 0V478h-26v-22.7a8 8 0 1 0-16 0V478h-26v-39.42a8 8 0 1 0-16 0V478h-26v-22.7a8 8 0 1 0-16 0V478h-25v-39.42a8 8 0 1 0-16 0V478h-26v-22.7a8 8 0 1 0-16 0V478H76v-39.42a8 8 0 0 0-16 0V478H26v-83h460zm0-99H26v-27h460z"/></svg>