<svg xmlns="http://www.w3.org/2000/svg" width="64" height="64" id="display"><path fill="#788D9A" d="M18.14 18.568h7.896v3.613H18.14zM18.14 24.506h7.896v3.613H18.14zM25.135 32.825a4.514 4.514 0 0 1 1.296-.653c.193-.055.386-.101.588-.138v-1.167h1.388v1.167c.699.11 1.333.386 1.884.791l.827-.837.984.993-.827.827c.395.542.671 1.176.781 1.875h1.177v1.397h-1.177a4.362 4.362 0 0 1-.781 1.875l.827.837-.984.984-.827-.827a4.282 4.282 0 0 1-1.884.772v1.177H27.02v-1.177a4.272 4.272 0 0 1-1.884-.772l-.827.827-.984-.984.827-.837a4.362 4.362 0 0 1-.781-1.875h-1.177v-1.397h1.177c.11-.699.386-1.333.781-1.875l-.827-.827.984-.993.826.837zM28.049 18.568h7.896v3.613h-7.896zM28.049 24.506h7.896v3.613h-7.896zM35.725 30.95a3.19 3.19 0 0 1 .974-.478c.147-.046.294-.083.441-.101v-.882h1.048v.882c.515.073.993.285 1.406.579l.625-.625.735.745-.625.625c.303.404.506.882.588 1.406h.882v1.048h-.882a3.152 3.152 0 0 1-.588 1.406l.625.625-.735.744-.624-.624a3.349 3.349 0 0 1-1.406.579v.882H37.14v-.882a3.336 3.336 0 0 1-1.416-.579l-.616.625-.404-.404-.34-.34.625-.625a3.14 3.14 0 0 1-.588-1.406h-.882v-1.048h.882a3.152 3.152 0 0 1 .588-1.406l-.625-.625.745-.745.616.624zM37.959 18.568h7.905v3.613h-7.905zM37.959 24.506h7.905v3.613h-7.905z"></path><path fill="#7D7D7D" d="M61.417 17.667v30.187H2.587V17.667a3.94 3.94 0 0 1 3.934-3.944h9.183v29.939H48.3V13.724h9.174a3.943 3.943 0 0 1 3.943 3.943z"></path><path fill="#EDEDED" d="M57.472 56.088H6.524a3.94 3.94 0 0 1-3.941-3.941v-4.293h58.83v4.293a3.941 3.941 0 0 1-3.941 3.941z"></path><path fill="#92B6CF" d="M7.707 17.916h7.997v25.747H7.707z"></path><path fill="#78BFE8" d="M18.14 18.568h7.896v3.613H18.14zM18.14 24.506h7.896v3.613H18.14zM32.057 35.684h1.177v1.397h-1.177a4.362 4.362 0 0 1-.781 1.875l.827.837-.984.984-.827-.827a4.282 4.282 0 0 1-1.884.772v1.177H27.02v-1.177a4.272 4.272 0 0 1-1.884-.772l-.827.827-.984-.984.827-.837a4.362 4.362 0 0 1-.781-1.875h-1.177v-1.397h1.177c.11-.699.386-1.333.781-1.875l-.827-.827.984-.993.827.837a4.514 4.514 0 0 1 1.296-.653c.193-.055.386-.101.588-.138v-1.167h1.388v1.167c.699.11 1.333.386 1.884.791l.827-.837.984.993-.827.827c.395.542.671 1.177.781 1.875zM28.049 18.568h7.896v3.613h-7.896zM28.049 24.506h7.896v3.613h-7.896zM40.918 33.101h.882v1.048h-.882a3.152 3.152 0 0 1-.588 1.406l.625.625-.735.744-.625-.624a3.349 3.349 0 0 1-1.406.579v.882H37.14v-.882a3.336 3.336 0 0 1-1.416-.579l-.616.625-.404-.404-.34-.34.625-.625a3.14 3.14 0 0 1-.588-1.406h-.882v-1.048h.882a3.152 3.152 0 0 1 .588-1.406l-.625-.625.745-.745.616.625a3.19 3.19 0 0 1 .974-.478c.147-.046.294-.083.441-.101v-.882h1.048v.882c.515.073.993.285 1.406.579l.625-.625.735.745-.625.625c.304.403.507.881.589 1.405zM37.959 18.568h7.905v3.613h-7.905zM37.959 24.506h7.905v3.613h-7.905z"></path><path fill="#92B6CF" d="M48.3 17.916h7.988v25.747H48.3z"></path><path fill="#D7D6D6" d="M40.318 61.168h-16.64l1.255-5.08h14.13z"></path><path fill="#EDEDED" d="M42.73 64H21.266a1.313 1.313 0 0 1-1.313-1.313v-.207c0-.725.588-1.313 1.313-1.313H42.73c.725 0 1.313.588 1.313 1.313v.207c0 .725-.588 1.313-1.313 1.313z"></path><circle cx="31.998" cy="51.971" r="2.058" fill="#7D7D7D"></circle><path fill="#C9C9C9" d="M48.3 1.838v5.543H15.704V1.838C15.704.827 16.522 0 17.543 0h28.919C47.473 0 48.3.827 48.3 1.838z"></path><path fill="#EDEDED" d="M15.704 7.381v36.282H48.3V7.381H15.704zm2.436 11.187h7.896v3.613H18.14v-3.613zm0 5.938h7.896v3.613H18.14v-3.613zm15.094 12.575h-1.177a4.362 4.362 0 0 1-.781 1.875l.827.837-.984.984-.827-.827a4.282 4.282 0 0 1-1.884.772v1.177H27.02v-1.177a4.272 4.272 0 0 1-1.884-.772l-.827.827-.984-.984.827-.837a4.362 4.362 0 0 1-.781-1.875h-1.177v-1.397h1.177c.11-.699.386-1.333.781-1.875l-.827-.827.984-.993.827.837a4.514 4.514 0 0 1 1.296-.653c.193-.055.386-.101.588-.138v-1.167h1.388v1.167c.699.11 1.333.386 1.884.791l.827-.837.984.993-.827.827c.395.542.671 1.176.781 1.875h1.177v1.397zm2.711-12.575v3.613h-7.896v-3.613h7.896zm-7.896-2.325v-3.613h7.896v3.613h-7.896zm13.752 11.968h-.882a3.152 3.152 0 0 1-.588 1.406l.625.625-.735.744-.626-.624a3.349 3.349 0 0 1-1.406.579v.882H37.14v-.882a3.336 3.336 0 0 1-1.416-.579l-.616.625-.404-.404-.34-.34.625-.625a3.14 3.14 0 0 1-.588-1.406h-.882v-1.048h.882a3.152 3.152 0 0 1 .588-1.406l-.625-.625.745-.745.616.625a3.19 3.19 0 0 1 .974-.478c.147-.046.294-.083.441-.101v-.882h1.048v.882c.515.073.993.285 1.406.579l.625-.625.735.745-.625.625c.303.404.506.882.588 1.406h.882v1.047zm4.063-6.03h-7.905v-3.613h7.905v3.613zm0-5.938h-7.905v-3.613h7.905v3.613zm0-5.948H18.14v-5.837h27.724v5.837z"></path><path fill="#EDEDED" d="M18.14 18.568h7.896v3.613H18.14zM18.14 24.506h7.896v3.613H18.14zM25.135 32.825a4.514 4.514 0 0 1 1.296-.653c.193-.055.386-.101.588-.138v-1.167h1.388v1.167c.699.11 1.333.386 1.884.791l.827-.837.984.993-.827.827c.395.542.671 1.176.781 1.875h1.177v1.397h-1.177a4.362 4.362 0 0 1-.781 1.875l.827.837-.984.984-.827-.827a4.282 4.282 0 0 1-1.884.772v1.177H27.02v-1.177a4.272 4.272 0 0 1-1.884-.772l-.827.827-.984-.984.827-.837a4.362 4.362 0 0 1-.781-1.875h-1.177v-1.397h1.177c.11-.699.386-1.333.781-1.875l-.827-.827.984-.993.826.837zM28.049 18.568h7.896v3.613h-7.896zM28.049 24.506h7.896v3.613h-7.896zM35.725 30.95a3.19 3.19 0 0 1 .974-.478c.147-.046.294-.083.441-.101v-.882h1.048v.882c.515.073.993.285 1.406.579l.625-.625.735.745-.625.625c.303.404.506.882.588 1.406h.882v1.048h-.882a3.152 3.152 0 0 1-.588 1.406l.625.625-.735.744-.624-.624a3.349 3.349 0 0 1-1.406.579v.882H37.14v-.882a3.336 3.336 0 0 1-1.416-.579l-.616.625-.404-.404-.34-.34.625-.625a3.14 3.14 0 0 1-.588-1.406h-.882v-1.048h.882a3.152 3.152 0 0 1 .588-1.406l-.625-.625.745-.745.616.624zM37.959 18.568h7.905v3.613h-7.905zM37.959 24.506h7.905v3.613h-7.905zM15.704 43.663H48.3v.009H15.704z"></path><circle cx="44.161" cy="3.695" r="1.379" fill="#EDEDED"></circle><circle cx="39.951" cy="3.695" r="1.379" fill="#EDEDED"></circle><circle cx="35.741" cy="3.695" r="1.379" fill="#EDEDED"></circle><path fill="#78BFE8" d="M18.14 10.396h27.724v5.837H18.14z"></path><path fill="#D7D6D6" d="M18.14 18.568h7.896v3.613H18.14zM18.14 24.506h7.896v3.613H18.14zM28.049 18.568h7.896v3.613h-7.896zM28.049 24.506h7.896v3.613h-7.896zM37.959 18.568h7.905v3.613h-7.905zM37.959 24.506h7.905v3.613h-7.905z"></path><path fill="#FEDC7D" d="M33.234 37.081v-1.397h-1.177a4.311 4.311 0 0 0-.781-1.875l.827-.827-.984-.993-.827.837a4.321 4.321 0 0 0-1.884-.791v-1.167H27.02v1.167a6.214 6.214 0 0 0-.588.138 4.514 4.514 0 0 0-1.296.653l-.827-.837-.984.993.827.827a4.311 4.311 0 0 0-.781 1.875h-1.177v1.397h1.177c.11.689.386 1.333.781 1.875l-.827.837.984.984.827-.827a4.282 4.282 0 0 0 1.884.772v1.177h1.388v-1.177a4.272 4.272 0 0 0 1.884-.772l.827.827.984-.984-.827-.837a4.362 4.362 0 0 0 .781-1.875h1.177zm-5.516 1.14c-.506 0-.956-.193-1.287-.515a1.826 1.826 0 0 1-.561-1.324c0-.524.212-.993.561-1.324a1.835 1.835 0 0 1 1.287-.524c1.011 0 1.838.827 1.838 1.848a1.836 1.836 0 0 1-1.838 1.839zm14.083-4.072v-1.048h-.882a3.152 3.152 0 0 0-.588-1.406l.625-.625-.735-.745-.625.625a3.224 3.224 0 0 0-1.406-.579v-.882h-1.05v.882a2.505 2.505 0 0 0-.441.101 3.19 3.19 0 0 0-.974.478l-.616-.625-.745.745.625.625a3.14 3.14 0 0 0-.588 1.406h-.882v1.048h.882c.083.524.285 1.002.588 1.406l-.625.625.34.34.404.404.616-.625c.414.294.892.496 1.416.579v.882h1.048v-.882a3.338 3.338 0 0 0 1.406-.579l.625.625.735-.744-.625-.625a3.14 3.14 0 0 0 .588-1.406h.884zm-4.137.855a1.384 1.384 0 0 1-1.388-1.379c0-.386.166-.745.423-.993.248-.248.588-.386.965-.386.763 0 1.379.616 1.379 1.379s-.616 1.379-1.379 1.379z"></path></svg>