<svg xmlns="http://www.w3.org/2000/svg" xmlns:xlink="http://www.w3.org/1999/xlink" width="48" height="48"><defs><linearGradient id="b" x1="992.183" x2="1019.298" y1="516.081" y2="545.959" gradientTransform="translate(-1243.705 878.342) scale(1.53785)" gradientUnits="userSpaceOnUse" xlink:href="#a"/><linearGradient id="a"><stop offset="0" stop-color="#ff1679"/><stop offset="1" stop-color="#ff770b"/></linearGradient></defs><g transform="translate(-279 -1671.362)"><rect width="48" height="48" x="279" y="1671.362" fill="url(#b)" rx="10.144" ry="10.144"/><path style="line-height:normal;-inkscape-font-specification:Sans;text-indent:0;text-align:start;text-decoration-line:none;text-transform:none;block-progression:tb;marker:none" fill="#fff" d="M290 1686.362h23v5h-2.5a.41.41 0 0 0-.156 0 .515.515 0 0 0-.344.5v3.5h-3.313l1.157-1.156c.332-.28.022-.948-.406-.875a.506.506 0 0 0-.282.156l-1.906 1.906c-.498.499-.176.97.375.97h6.875a.523.523 0 0 0 .507-.5.52.52 0 0 0-.507-.5H311v-1h7v8h-7v-4h2.281l-1.125 1.124a.521.521 0 0 0-.055.741.521.521 0 0 0 .743-.022l1.937-1.906a.504.504 0 0 0 .156-.156c.09-.09.198-.782-.437-.782h-7a.41.41 0 0 0-.156 0 .526.526 0 0 0-.422.578c.04.262.316.463.578.422h2.5v2h-20zm21 6h7v1h-7zm-22.75 9H310v1h-20.25c-.757 0-1.249-.458-1.5-1zm22.75 2h7v1h-7z" color="#000" font-family="Sans" font-weight="400" overflow="visible"/></g></svg>